<?xml version="1.0" standalone="no"?>
<!DOCTYPE svg PUBLIC "-//W3C//DTD SVG 20010904//EN"
 "http://www.w3.org/TR/2001/REC-SVG-20010904/DTD/svg10.dtd">
<svg version="1.0" xmlns="http://www.w3.org/2000/svg"
 width="157.000000pt" height="157.000000pt" viewBox="0 0 157.000000 157.000000"
 preserveAspectRatio="xMidYMid meet">
<metadata>
Created by potrace 1.14, written by Peter Selinger 2001-2017
</metadata>
<g transform="translate(0.000000,157.000000) scale(0.100000,-0.100000)"
fill="#000000" stroke="none">
<path d="M814 1248 c-4 -6 -3 -8 3 -5 5 3 10 0 10 -7 0 -11 -4 -12 -18 -3 -14
9 -22 7 -38 -7 -11 -10 -24 -15 -30 -12 -5 3 -11 2 -13 -4 -1 -5 -22 -11 -45
-14 -56 -5 -66 -12 -52 -38 10 -18 9 -20 -5 -15 -9 4 -16 3 -16 -1 0 -5 -16
-16 -35 -25 -21 -10 -35 -24 -35 -35 0 -10 -8 -27 -18 -38 -15 -16 -17 -40
-18 -154 0 -108 -4 -141 -17 -161 -28 -43 -12 -130 38 -199 18 -25 34 -48 34
-52 1 -4 3 -13 5 -20 26 -84 22 -128 -13 -158 -61 -52 -134 -100 -151 -100 -9
0 -20 -3 -24 -7 -4 -5 -11 -8 -14 -9 -4 0 -28 -7 -54 -14 -43 -13 -48 -17 -48
-42 l0 -28 381 0 382 0 -7 39 c-3 22 -15 55 -26 73 -10 18 -18 40 -17 49 4 28
41 109 49 109 4 0 8 7 8 15 0 8 5 15 10 15 6 0 10 5 10 11 0 13 70 120 88 134
7 6 14 17 15 25 2 8 6 20 10 27 7 11 8 33 6 108 -2 61 5 111 22 153 10 23 17
42 15 42 -2 0 0 16 4 34 5 25 3 41 -7 55 -13 19 -12 21 9 22 22 0 22 1 3 12
-11 7 -42 35 -70 62 -28 28 -52 51 -55 52 -3 1 -12 5 -22 8 -9 4 -21 19 -28
34 -10 25 -40 39 -40 19 0 -7 -13 -3 -105 37 -53 23 -73 26 -81 13z"/>
</g>
</svg>
